<?xml version="1.0" encoding="UTF-8"?>
<svg width="24" height="24" viewBox="0 0 24 24" fill="none" xmlns="http://www.w3.org/2000/svg">
  <path d="M12 2C6.48 2 2 6.48 2 12C2 17.52 6.48 22 12 22C17.52 22 22 17.52 22 12C22 6.48 17.52 2 12 2ZM12 20C7.58 20 4 16.42 4 12C4 7.58 7.58 4 12 4C16.42 4 20 7.58 20 12C20 16.42 16.42 20 12 20Z" fill="currentColor"/>
  <path d="M15.45 7.55L9 14L8.55 13.55C7.4 12.4 7.4 10.45 8.55 9.3C9.7 8.15 11.65 8.15 12.8 9.3L13.25 9.75L15.45 7.55ZM11.75 15.5L13.95 13.3L13.5 12.85C12.35 11.7 10.4 11.7 9.25 12.85C8.1 14 8.1 15.95 9.25 17.1L9.7 17.55L11.75 15.5Z" fill="currentColor"/>
</svg>
